<?xml version="1.0" encoding="iso-8859-1"?>
<!-- Uploaded to: SVG Repo, www.svgrepo.com, Generator: SVG Repo Mixer Tools -->
<svg height="800px" width="800px" version="1.1" id="Layer_1" xmlns="http://www.w3.org/2000/svg" xmlns:xlink="http://www.w3.org/1999/xlink" 
	 viewBox="0 0 512.001 512.001" xml:space="preserve">
<path style="fill:#F2C500;" d="M223.899,432.833H39.918C17.907,432.833,0,414.926,0,392.916V164.397
	c0-9.857,7.991-17.847,17.847-17.847h206.051c9.857,0,17.847,7.991,17.847,17.847v250.589
	C241.746,424.842,233.756,432.833,223.899,432.833z"/>
<path style="fill:#F59D00;" d="M178.376,289.691c0,9.102-7.383,16.424-16.411,16.424c-0.198,0-0.402-0.006-0.6-0.012l-11.62-0.872
	l-23.622,44.338h-21.898l15.361-46.601l-34.221-2.566l-4.885,14.823H63.369l8.416-25.533l-8.416-25.533H80.48l4.885,14.823
	l34.221-2.566l-15.361-46.601h21.898l23.622,44.338c3.129-0.236,5.158-0.389,11.62-0.872
	C170.659,272.945,178.376,280.384,178.376,289.691z"/>
<path style="fill:#F2C500;" d="M223.899,146.548h-17.847v286.284h17.847c9.857,0,17.847-7.991,17.847-17.847V164.395
	C241.746,154.539,233.756,146.548,223.899,146.548z"/>
<path style="fill:#E87E04;" d="M472.082,432.833H206.051V146.548h288.102c9.857,0,17.848,7.991,17.848,17.847v228.519
	C512,414.961,494.129,432.833,472.082,432.833z"/>
<g>
	<path style="fill:#F59D00;" d="M426.064,244.23H291.987c-9.857,0-17.847-7.991-17.847-17.847c0-9.857,7.991-17.847,17.847-17.847
		h134.077c9.857,0,17.847,7.991,17.847,17.847C443.912,236.239,435.921,244.23,426.064,244.23z"/>
	<path style="fill:#F59D00;" d="M426.064,307.538H291.987c-9.857,0-17.847-7.991-17.847-17.847c0-9.857,7.991-17.847,17.847-17.847
		h134.077c9.857,0,17.847,7.991,17.847,17.847C443.912,299.547,435.921,307.538,426.064,307.538z"/>
	<path style="fill:#F59D00;" d="M426.064,370.848H291.987c-9.857,0-17.847-7.991-17.847-17.847s7.991-17.847,17.847-17.847h134.077
		c9.857,0,17.847,7.991,17.847,17.847C443.912,362.857,435.921,370.848,426.064,370.848z"/>
</g>
<path style="fill:#E87E04;" d="M512,182.243H0v-63.157c0-22.046,17.871-39.918,39.918-39.918h432.165
	c22.046,0,39.918,17.871,39.918,39.918L512,182.243L512,182.243z"/>
<path style="fill:#D55400;" d="M512,119.085c0-22.046-17.872-39.918-39.918-39.918H206.051v103.076h305.95v-63.159H512z"/>
</svg>